####
#
# OBJ File Hand coded as sample for IGLU for SimpleDrawCornellBox6 Example
#
####

mtllib box1.mtl


vt 1 0
vn 0 1 0
v  0.000 0.000 0.000
vt 1 1
vn 0 1 0
v  0.000 0.000 5.592
vt 0 0
vn 0 1 0
v  5.560 0.000 0.000
vt 0 1
vn 0 1 0
v  5.560 0.000 5.592
vt 1 0
vn 0 -1 0
v  0.000 5.488 5.592
vt 1 1
vn 0 -1 0
v  0.000 5.488 0.000
vt 0 0
vn 0 -1 0
v  5.560 5.488 5.592
vt 0 1
vn 0 -1 0
v  5.560 5.488 0.000
vt 1 0
vn 0 0 -1
v  0.000 0.000 5.592
vt 1 1
vn 0 0 -1
v  0.000 5.488 5.592
vt 0 0
vn 0 0 -1
v  5.560 0.000 5.592
vt 0 1
vn 0 0 -1
v  5.560 5.488 5.592
vt 0 0
vn -1 0 0
v  5.560 0.000 0.000
vt 1 0
vn -1 0 0
v  5.560 0.000 5.592
vt 0 1
vn -1 0 0
v  5.560 5.488 0.000
vt 1 1
vn -1 0 0
v  5.560 5.488 5.592
vt 0 0
vn 1 0 0
v  0.000 0.000 5.592
vt 1 0
vn 1 0 0
v  0.000 0.000 0.000
vt 0 1
vn 1 0 0
v  0.000 5.488 5.592
vt 1 1
vn 1 0 0
v  0.000 5.488 0.000



usemtl White
f 1/1/1 2/2/2 4/4/4 3/3/3

usemtl Yellow
f 5/5/5 6/6/6 8/8/8 7/7/7

usemtl Purple
f 9/9/9 10/10/10 12/12/12 11/11/11

usemtl Green
f 13/13/13 14/14/14 16/16/16 15/15/15

usemtl Red
f 17/17/17 18/18/18 20/20/20 19/19/19
